<svg width="36" height="30" viewBox="0 0 36 30" fill="none" xmlns="http://www.w3.org/2000/svg">
<path d="M2.25 24.375C2.25 25.4121 3.25547 26.25 4.5 26.25H31.5C32.7445 26.25 33.75 25.4121 33.75 24.375C33.75 23.3379 32.7445 22.5 31.5 22.5H4.5C3.25547 22.5 2.25 23.3379 2.25 24.375ZM2.25 15C2.25 16.0371 3.25547 16.875 4.5 16.875H31.5C32.7445 16.875 33.75 16.0371 33.75 15C33.75 13.9629 32.7445 13.125 31.5 13.125H4.5C3.25547 13.125 2.25 13.9629 2.25 15ZM33.75 5.625C33.75 4.58789 32.7445 3.75 31.5 3.75H4.5C3.25547 3.75 2.25 4.58789 2.25 5.625C2.25 6.66211 3.25547 7.5 4.5 7.5H31.5C32.7445 7.5 33.75 6.66211 33.75 5.625Z" fill="black"/>
</svg>
